<svg width="9737" height="4265" xmlns="http://www.w3.org/2000/svg" preserveAspectRatio="xMidYMid meet">
 <g>
  <title>background</title>
  <rect x="-1" y="-1" width="9739" height="4267" id="canvas_background" fill="#ffffff"/>
 </g>

 <g>
  <title>Layer 1</title>
  <g stroke="null" id="layer101" fill="#000000">
   <path stroke="null" d="m7188.043911,3916.802238c-40.921489,0 -77.394991,-4.311216 -80.953381,-9.484676c-2.668793,-4.311216 -21.350342,-8.622433 -40.921489,-8.622433c-50.707063,0.862243 -119.206078,-9.484676 -119.206078,-17.244866c0,-3.448973 -24.019135,-9.484676 -53.375856,-12.933649c-29.356721,-3.448973 -53.375856,-9.484676 -53.375856,-12.933649c0,-3.448973 -19.571147,-9.484676 -44.47988,-12.933649c-24.019135,-3.448973 -44.47988,-9.484676 -44.47988,-13.795893c0,-4.311216 -8.895976,-7.76019 -19.571147,-7.76019c-11.564769,0 -32.025513,-6.035703 -46.259075,-12.933649c-14.233562,-6.897946 -48.03827,-19.831596 -74.726198,-26.729542c-46.259075,-13.795893 -161.017165,-68.11722 -170.802738,-81.913113c-2.668793,-3.448973 -15.123159,-8.622433 -28.467123,-12.071406c-13.343964,-3.448973 -25.79833,-11.209163 -28.467123,-18.107109c-2.668793,-6.897946 -10.675171,-12.071406 -18.681549,-12.071406c-7.116781,0 -13.343964,-3.448973 -13.343964,-7.76019c0,-4.311216 -9.785574,-10.34692 -22.23994,-12.933649c-12.454366,-3.448973 -22.23994,-9.484676 -22.23994,-13.795893c0,-5.17346 -4.447988,-8.622433 -9.785574,-8.622433c-5.337586,0 -18.681549,-6.897946 -30.246318,-14.658136c-10.675171,-8.622433 -29.356721,-21.556082 -40.031892,-28.454029c-10.675171,-6.897946 -32.025513,-23.280569 -48.03827,-36.214218c-15.123159,-12.933649 -31.135916,-24.142812 -36.473501,-24.142812c-4.447988,0 -29.356721,-20.693839 -55.155051,-44.836651c-24.908733,-25.005056 -61.382234,-59.494787 -80.063784,-76.739653c-36.473501,-32.765245 -114.75809,-117.265088 -146.783603,-158.652766c-34.694306,-44.836651 -38.252697,-48.285625 -53.375856,-62.943761c-8.895976,-7.76019 -16.012757,-20.693839 -16.012757,-28.454029c0,-7.76019 -6.227183,-16.382623 -13.343964,-19.831596c-7.116781,-2.58673 -13.343964,-8.622433 -13.343964,-13.795893c0,-5.17346 -11.564769,-21.556082 -26.687928,-37.076462c-14.233562,-15.520379 -26.687928,-32.765245 -26.687928,-37.938705c0,-6.035703 -3.55839,-11.209163 -8.895976,-11.209163c-4.447988,0 -8.895976,-6.035703 -8.895976,-12.933649c0,-7.76019 -6.227183,-15.520379 -13.343964,-18.107109c-7.116781,-3.448973 -13.343964,-10.34692 -13.343964,-16.382623c0,-9.484676 -11.564769,-25.005056 -46.259075,-64.668247c-15.123159,-16.382623 -32.025513,-43.974408 -39.142294,-62.081517c-2.668793,-7.76019 -10.675171,-16.382623 -17.791952,-18.969352c-7.116781,-2.58673 -12.454366,-9.484676 -12.454366,-15.520379c0,-6.035703 -8.895976,-20.693839 -20.460745,-32.765245c-11.564769,-12.071406 -23.129537,-28.454029 -26.687928,-36.214218c-2.668793,-8.622433 -9.785574,-15.520379 -15.123159,-15.520379c-4.447988,0 -8.895976,-5.17346 -8.895976,-11.209163c0,-6.897946 -7.116781,-19.831596 -15.123159,-30.178515c-35.583904,-41.387678 -47.148673,-57.770301 -47.148673,-67.254977c0,-6.035703 -6.227183,-12.071406 -13.343964,-15.520379c-7.116781,-2.58673 -13.343964,-10.34692 -13.343964,-18.107109c0,-6.897946 -3.55839,-12.933649 -8.006378,-12.933649c-4.447988,0 -17.791952,-14.658136 -28.467123,-31.903002c-11.564769,-18.107109 -24.019135,-33.627488 -27.577525,-35.351975c-3.55839,-1.724487 -7.116781,-8.622433 -7.116781,-15.520379c0,-6.897946 -6.227183,-14.658136 -13.343964,-17.244866c-7.116781,-3.448973 -13.343964,-10.34692 -13.343964,-16.382623c0,-5.17346 -7.116781,-18.107109 -15.123159,-28.454029c-8.895976,-9.484676 -22.23994,-25.867299 -29.356721,-36.214218c-7.116781,-10.34692 -20.460745,-28.454029 -28.467123,-38.800948c-8.895976,-11.209163 -16.012757,-24.142812 -16.012757,-29.316272c0,-5.17346 -3.55839,-9.484676 -8.006378,-9.484676c-5.337586,0 -17.791952,-15.520379 -28.467123,-34.489732c-11.564769,-18.969352 -23.129537,-34.489732 -27.577525,-34.489732c-3.55839,0 -7.116781,-6.035703 -7.116781,-12.933649c0,-7.76019 -6.227183,-15.520379 -13.343964,-18.107109c-7.116781,-2.58673 -15.123159,-12.933649 -18.681549,-23.280569c-3.55839,-10.34692 -10.675171,-23.280569 -16.012757,-29.316272c-24.019135,-25.867299 -30.246318,-35.351975 -35.583904,-51.734598c-3.55839,-10.34692 -11.564769,-20.693839 -18.681549,-23.280569c-7.116781,-2.58673 -13.343964,-10.34692 -13.343964,-17.244866c0,-6.035703 -6.227183,-13.795893 -13.343964,-17.244866c-7.116781,-2.58673 -13.343964,-8.622433 -13.343964,-13.795893c0,-5.17346 -5.337586,-15.520379 -10.675171,-21.556082c-23.129537,-25.005056 -30.246318,-34.489732 -36.473501,-49.147868c-2.668793,-8.622433 -9.785574,-15.520379 -14.233562,-15.520379c-4.447988,0 -11.564769,-8.622433 -15.123159,-18.969352c-2.668793,-10.34692 -15.123159,-28.454029 -26.687928,-40.525435c-11.564769,-12.071406 -21.350342,-27.591785 -21.350342,-32.765245c0,-6.035703 -8.006378,-18.107109 -17.791952,-25.867299c-9.785574,-8.622433 -17.791952,-19.831596 -17.791952,-25.867299c0,-6.035703 -4.447988,-11.209163 -8.895976,-11.209163c-5.337586,0 -13.343964,-9.484676 -17.791952,-21.556082c-4.447988,-12.071406 -14.233562,-24.142812 -22.23994,-26.729542c-7.116781,-2.58673 -11.564769,-7.76019 -8.895976,-12.071406c1.779195,-3.448973 -8.006378,-18.969352 -22.23994,-34.489732c-15.123159,-16.382623 -26.687928,-34.489732 -26.687928,-40.525435c0,-6.035703 -3.55839,-11.209163 -8.895976,-11.209163c-4.447988,0 -8.895976,-6.035703 -8.895976,-12.933649c0,-7.76019 -6.227183,-15.520379 -13.343964,-18.107109c-7.116781,-3.448973 -13.343964,-10.34692 -13.343964,-17.244866c0,-6.897946 -8.006378,-18.969352 -17.791952,-26.729542c-9.785574,-8.622433 -17.791952,-19.831596 -17.791952,-25.005056c0,-6.035703 -6.227183,-12.071406 -13.343964,-15.520379c-7.116781,-2.58673 -13.343964,-8.622433 -13.343964,-13.795893c0,-10.34692 -39.142294,-63.806004 -64.051027,-88.811059c-8.895976,-8.622433 -16.012757,-20.693839 -16.012757,-27.591785c0,-6.897946 -3.55839,-12.933649 -8.895976,-12.933649c-4.447988,0 -8.895976,-6.035703 -8.895976,-12.933649c0,-7.76019 -6.227183,-15.520379 -13.343964,-18.107109c-7.116781,-3.448973 -13.343964,-9.484676 -13.343964,-15.520379c0,-11.209163 -23.129537,-43.112165 -46.259075,-63.806004c-8.895976,-7.76019 -16.012757,-20.693839 -16.012757,-28.454029c0,-7.76019 -6.227183,-16.382623 -13.343964,-19.831596c-7.116781,-2.58673 -13.343964,-10.34692 -13.343964,-18.107109c0,-6.897946 -3.55839,-12.933649 -7.116781,-12.933649c-3.55839,0 -16.902354,-15.520379 -28.467123,-34.489732c-12.454366,-18.969352 -24.908733,-34.489732 -28.467123,-34.489732c-4.447988,0 -7.116781,-6.035703 -7.116781,-12.933649c0,-7.76019 -6.227183,-15.520379 -13.343964,-18.107109c-7.116781,-3.448973 -13.343964,-10.34692 -13.343964,-16.382623c0,-5.17346 -7.116781,-18.107109 -15.123159,-28.454029c-35.583904,-41.387678 -47.148673,-57.770301 -47.148673,-67.254977c0,-6.035703 -6.227183,-12.071406 -13.343964,-15.520379c-7.116781,-2.58673 -13.343964,-10.34692 -13.343964,-17.244866c0,-6.035703 -6.227183,-13.795893 -13.343964,-17.244866c-7.116781,-2.58673 -13.343964,-9.484676 -13.343964,-15.520379c0,-6.897946 -8.006378,-17.244866 -16.902354,-24.142812c-13.343964,-8.622433 -15.123159,-15.520379 -8.895976,-27.591785c4.447988,-8.622433 14.233562,-15.520379 20.460745,-15.520379c7.116781,0 14.233562,-6.035703 17.791952,-12.933649c2.668793,-6.897946 13.343964,-12.933649 23.129537,-12.933649c9.785574,0 17.791952,-3.448973 17.791952,-7.76019c0,-4.311216 11.564769,-10.34692 25.79833,-13.795893c14.233562,-2.58673 28.467123,-11.209163 31.135916,-18.107109c2.668793,-6.897946 16.902354,-12.071406 32.025513,-12.071406c14.233562,0 26.687928,-3.448973 26.687928,-7.76019c0,-5.17346 17.791952,-11.209163 40.031892,-14.658136c22.23994,-2.58673 40.031892,-8.622433 40.031892,-12.071406c0,-7.76019 54.265453,-18.107109 92.51815,-18.107109c14.233562,0 32.025513,-4.311216 38.252697,-9.484676c17.791952,-13.795893 259.762498,-13.795893 268.658474,0.862243c3.55839,5.17346 18.681549,9.484676 32.915111,9.484676c35.583904,-0.862243 85.401369,8.622433 98.745333,18.969352c6.227183,4.311216 15.123159,6.035703 19.571147,3.448973c4.447988,-3.448973 10.675171,-1.724487 14.233562,3.448973c2.668793,4.311216 15.123159,8.622433 27.577525,8.622433c11.564769,0 21.350342,4.311216 21.350342,9.484676c0,5.17346 5.337586,7.76019 12.454366,5.17346c7.116781,-2.58673 20.460745,2.58673 30.246318,11.209163c9.785574,9.484676 28.467123,18.969352 40.921489,22.418326c12.454366,2.58673 23.129537,8.622433 23.129537,12.071406c0,3.448973 10.675171,8.622433 24.908733,11.209163c13.343964,3.448973 37.363099,17.244866 54.265453,31.903002c16.012757,13.795893 35.583904,25.867299 41.811087,25.867299c6.227183,0 20.460745,11.209163 31.135916,25.005056c10.675171,13.795893 32.025513,31.903002 48.927868,40.525435c16.012757,8.622433 34.694306,25.005056 40.921489,37.076462c6.227183,12.071406 26.687928,37.076462 44.47988,54.321328c18.681549,18.107109 33.804709,36.214218 33.804709,39.663192c0,6.897946 9.785574,19.831596 44.47988,59.494787c4.447988,6.035703 8.895976,13.795893 8.895976,18.107109c0,8.622433 25.79833,41.387678 47.148673,60.357031c8.006378,7.76019 15.123159,20.693839 15.123159,28.454029c0,7.76019 6.227183,16.382623 13.343964,19.831596c7.116781,2.58673 13.343964,10.34692 13.343964,18.107109c0,6.897946 3.55839,12.933649 8.006378,12.933649c4.447988,0 17.791952,14.658136 28.467123,32.765245c11.564769,17.244866 24.019135,33.627488 27.577525,34.489732c3.55839,1.724487 7.116781,8.622433 7.116781,15.520379c0,6.897946 6.227183,14.658136 13.343964,17.244866c7.116781,3.448973 13.343964,10.34692 13.343964,16.382623c0,5.17346 7.116781,18.107109 16.012757,28.454029c8.006378,9.484676 21.350342,25.867299 28.467123,36.214218c7.116781,10.34692 20.460745,28.454029 29.356721,38.800948c8.006378,11.209163 15.123159,24.142812 15.123159,29.316272c0,5.17346 3.55839,9.484676 8.006378,9.484676c4.447988,0 23.129537,23.280569 40.921489,51.734598c17.791952,28.454029 35.583904,51.734598 40.031892,51.734598c4.447988,0 10.675171,8.622433 14.233562,18.969352c2.668793,10.34692 10.675171,23.280569 16.012757,29.316272c5.337586,5.17346 16.012757,18.969352 23.129537,29.316272c7.116781,10.34692 20.460745,28.454029 29.356721,38.800948c8.006378,11.209163 15.123159,24.142812 15.123159,28.454029c0,4.311216 6.227183,10.34692 13.343964,13.795893c7.116781,2.58673 13.343964,9.484676 13.343964,15.520379c0,6.035703 9.785574,21.556082 22.23994,34.489732c12.454366,12.933649 22.23994,26.729542 22.23994,30.178515c0,4.311216 8.006378,13.795893 17.791952,22.418326c9.785574,7.76019 17.791952,20.693839 17.791952,27.591785c0,6.897946 4.447988,12.933649 8.895976,12.933649c5.337586,0 8.895976,5.17346 8.895976,11.209163c0,6.035703 8.006378,17.244866 17.791952,25.867299c9.785574,7.76019 17.791952,19.831596 17.791952,26.729542c0,6.897946 6.227183,13.795893 13.343964,17.244866c7.116781,2.58673 13.343964,10.34692 13.343964,17.244866c0,6.035703 6.227183,13.795893 13.343964,17.244866c7.116781,2.58673 13.343964,8.622433 13.343964,13.795893c0,10.34692 39.142294,63.806004 64.051027,88.811059c8.895976,8.622433 16.012757,20.693839 16.012757,27.591785c0,6.897946 4.447988,12.933649 8.895976,12.933649c5.337586,0 8.895976,6.035703 8.895976,12.933649c0,7.76019 6.227183,15.520379 13.343964,18.107109c7.116781,3.448973 13.343964,10.34692 13.343964,17.244866c0,6.897946 8.006378,18.969352 17.791952,26.729542c9.785574,8.622433 17.791952,19.831596 17.791952,25.005056c0,6.035703 6.227183,12.071406 13.343964,15.520379c7.116781,2.58673 13.343964,10.34692 13.343964,17.244866c0,11.209163 10.675171,25.867299 60.492636,80.188626c10.675171,12.071406 19.571147,27.591785 19.571147,33.627488c0,6.897946 4.447988,12.071406 8.895976,12.071406c5.337586,0 8.895976,6.035703 8.895976,12.933649c0,7.76019 6.227183,15.520379 13.343964,18.107109c7.116781,3.448973 13.343964,10.34692 13.343964,17.244866c0,6.897946 8.006378,18.969352 17.791952,26.729542c9.785574,8.622433 17.791952,19.831596 17.791952,25.867299c0,6.035703 4.447988,11.209163 8.895976,11.209163c5.337586,0 12.454366,6.897946 16.012757,16.382623c12.454366,31.040759 126.322858,156.066036 142.335615,156.066036c5.337586,0 13.343964,5.17346 16.902354,11.209163c3.55839,6.897946 21.350342,20.693839 38.252697,32.765245c16.902354,11.209163 32.915111,22.418326 35.583904,25.005056c9.785574,9.484676 40.921489,26.729542 64.940624,35.351975c13.343964,5.17346 24.019135,12.933649 24.019135,17.244866c0,4.311216 8.006378,7.76019 16.902354,7.76019c9.785574,0 24.019135,6.035703 31.135916,13.795893c8.006378,6.897946 28.467123,27.838473 45.369477,18.107109c16.902354,-9.731364 31.135916,8.622433 31.135916,12.933649c0,5.17346 6.227183,6.897946 13.343964,4.311216c7.116781,-3.448973 15.123159,-1.724487 17.791952,2.58673c3.55839,5.17346 15.123159,8.622433 27.577525,8.622433c11.564769,0 21.350342,4.311216 21.350342,8.622433c0,5.17346 10.675171,8.622433 24.908733,8.622433c13.343964,0 57.823844,4.311216 99.634931,9.484676c91.628552,11.209163 117.426883,11.209163 209.055435,0c39.142294,-5.17346 81.842979,-9.484676 96.07654,-9.484676c13.343964,0 24.019135,-3.448973 24.019135,-8.622433c0,-4.311216 9.785574,-8.622433 21.350342,-8.622433c12.454366,0 24.019135,-3.448973 27.577525,-8.622433c2.668793,-4.311216 10.675171,-6.035703 17.791952,-2.58673c7.116781,2.58673 13.343964,0.862243 13.343964,-4.311216c0,-4.311216 14.233562,-10.34692 31.135916,-12.933649c16.902354,-2.58673 37.363099,-11.209163 45.369477,-18.107109c7.116781,-7.76019 21.350342,-13.795893 31.135916,-13.795893c8.895976,0 16.902354,-3.448973 16.902354,-7.76019c0,-4.311216 11.564769,-10.34692 25.79833,-13.795893c14.233562,-2.58673 28.467123,-11.209163 31.135916,-18.107109c2.668793,-6.897946 10.675171,-12.071406 17.791952,-12.071406c6.227183,0 14.233562,-6.035703 17.791952,-12.933649c2.668793,-6.897946 9.785574,-12.933649 16.012757,-12.933649c6.227183,0 27.577525,-13.795893 47.148673,-31.040759c19.571147,-17.244866 48.927868,-42.249921 64.940624,-56.045814c15.123159,-12.933649 28.467123,-26.729542 28.467123,-29.316272c0,-2.58673 16.012757,-21.556082 35.583904,-40.525435c19.571147,-19.831596 35.583904,-41.387678 35.583904,-47.423381c0,-5.17346 5.337586,-13.795893 11.564769,-17.244866c13.343964,-8.622433 30.246318,-32.765245 44.47988,-64.668247c5.337586,-13.795893 13.343964,-24.142812 16.902354,-24.142812c3.55839,0 7.116781,-7.76019 7.116781,-16.382623c0,-9.484676 6.227183,-23.280569 14.233562,-30.178515c7.116781,-7.76019 16.012757,-27.591785 18.681549,-43.974408c2.668793,-16.382623 8.895976,-30.178515 13.343964,-30.178515c5.337586,0 7.116781,-6.035703 4.447988,-12.933649c-3.55839,-6.897946 -1.779195,-14.658136 2.668793,-17.244866c5.337586,-3.448973 8.895976,-14.658136 8.895976,-26.729542c0,-11.209163 4.447988,-20.693839 8.895976,-20.693839c5.337586,0 8.895976,-10.34692 8.895976,-23.280569c0,-13.795893 4.447988,-53.459084 9.785574,-88.811059c14.233562,-96.571249 8.006378,-250.050555 -10.675171,-272.468881c-3.55839,-4.311216 -5.337586,-16.382623 -2.668793,-26.729542c2.668793,-9.484676 0.889598,-20.693839 -4.447988,-23.280569c-5.337586,-3.448973 -9.785574,-15.520379 -9.785574,-26.729542c0,-11.209163 -3.55839,-22.418326 -8.895976,-25.867299c-4.447988,-2.58673 -6.227183,-10.34692 -2.668793,-17.244866c2.668793,-6.897946 0.889598,-12.933649 -4.447988,-12.933649c-5.337586,0 -11.564769,-15.520379 -15.123159,-34.489732c-3.55839,-18.969352 -9.785574,-34.489732 -13.343964,-34.489732c-4.447988,0 -9.785574,-11.209163 -13.343964,-25.867299c-3.55839,-14.658136 -8.895976,-25.867299 -12.454366,-25.867299c-2.668793,0 -10.675171,-10.34692 -16.012757,-23.280569c-13.343964,-30.178515 -26.687928,-49.147868 -57.823844,-83.6376c-14.233562,-14.658136 -24.908733,-30.178515 -24.908733,-35.351975c-0.889598,-4.311216 -13.343964,-18.107109 -28.467123,-30.178515c-15.123159,-12.071406 -32.025513,-26.729542 -37.363099,-32.765245c-40.031892,-43.974408 -88.959759,-87.948816 -98.745333,-87.948816c-6.227183,0 -13.343964,-6.035703 -16.902354,-12.933649c-2.668793,-6.897946 -10.675171,-12.933649 -18.681549,-12.933649c-7.116781,0 -13.343964,-3.448973 -13.343964,-7.76019c0,-4.311216 -9.785574,-10.34692 -22.23994,-12.933649c-12.454366,-3.448973 -22.23994,-8.622433 -22.23994,-12.933649c0,-10.34692 -85.401369,-50.010111 -122.764468,-57.770301c-6.227183,-0.862243 -20.460745,-7.76019 -31.135916,-14.658136c-10.675171,-6.035703 -37.363099,-14.658136 -58.713441,-18.107109c-21.350342,-3.448973 -43.590282,-8.622433 -48.927868,-12.071406c-17.791952,-10.34692 -62.271832,-13.795893 -209.945032,-12.933649c-165.465153,0.862243 -187.705092,1.724487 -200.159459,11.209163c-8.006378,6.035703 -55.155051,18.107109 -80.063784,21.556082c-4.447988,0.862243 -20.460745,5.17346 -33.804709,11.209163c-14.233562,6.035703 -30.246318,10.34692 -37.363099,10.34692c-7.116781,0 -14.233562,3.448973 -16.902354,7.76019c-2.668793,4.311216 -16.012757,10.34692 -29.356721,13.795893c-13.343964,2.58673 -26.687928,8.622433 -29.356721,11.209163c-5.337586,7.76019 -33.804709,25.005056 -62.271832,37.938705c-12.454366,6.035703 -25.79833,15.520379 -29.356721,21.556082c-3.55839,6.035703 -11.564769,11.209163 -17.791952,11.209163c-6.227183,0 -20.460745,8.622433 -32.915111,19.831596c-12.454366,11.209163 -29.356721,22.418326 -37.363099,25.867299c-8.895976,2.58673 -16.012757,9.484676 -16.012757,14.658136c0,4.311216 -5.337586,8.622433 -11.564769,8.622433c-7.116781,0 -20.460745,6.897946 -31.135916,15.520379c-42.700685,33.627488 -59.603039,44.836651 -69.388612,44.836651c-6.227183,0 -12.454366,6.035703 -16.012757,12.933649c-2.668793,6.897946 -10.675171,12.933649 -18.681549,12.933649c-7.116781,0 -13.343964,3.448973 -13.343964,7.76019c0,4.311216 -15.123159,17.244866 -32.915111,27.591785c-18.681549,11.209163 -34.694306,23.280569 -36.473501,26.729542c-1.779195,3.448973 -8.895976,6.897946 -16.012757,6.897946c-7.116781,0 -15.123159,6.035703 -17.791952,12.933649c-3.55839,6.897946 -10.675171,12.933649 -16.902354,12.933649c-9.785574,0 -25.79833,11.209163 -66.71982,44.836651c-13.343964,11.209163 -39.142294,27.591785 -62.271832,38.800948c-7.116781,3.448973 -21.350342,12.933649 -30.246318,21.556082c-16.012757,13.795893 -17.791952,13.795893 -32.915111,-6.035703c-9.785574,-11.209163 -16.902354,-24.142812 -16.902354,-29.316272c0,-5.17346 -3.55839,-9.484676 -8.895976,-9.484676c-4.447988,0 -8.895976,-6.035703 -8.895976,-12.933649c0,-7.76019 -6.227183,-15.520379 -13.343964,-18.107109c-7.116781,-3.448973 -13.343964,-10.34692 -13.343964,-16.382623c0,-9.484676 -11.564769,-25.005056 -46.259075,-64.668247c-11.564769,-12.933649 -28.467123,-37.938705 -40.031892,-60.357031c-3.55839,-6.897946 -15.123159,-22.418326 -26.687928,-34.489732c-11.564769,-12.071406 -23.129537,-28.454029 -25.79833,-36.214218c-2.668793,-8.622433 -8.895976,-15.520379 -13.343964,-15.520379c-4.447988,0 -8.006378,-6.035703 -8.006378,-12.933649c0,-7.76019 -6.227183,-15.520379 -13.343964,-18.107109c-7.116781,-3.448973 -13.343964,-10.34692 -13.343964,-16.382623c0,-5.17346 -7.116781,-18.107109 -15.123159,-28.454029c-8.895976,-9.484676 -22.23994,-25.867299 -29.356721,-36.214218c-7.116781,-10.34692 -20.460745,-28.454029 -28.467123,-38.800948c-8.895976,-11.209163 -16.012757,-24.142812 -16.012757,-28.454029c0,-4.311216 -6.227183,-10.34692 -13.343964,-13.795893c-7.116781,-2.58673 -13.343964,-8.622433 -13.343964,-13.795893c0,-5.17346 -5.337586,-15.520379 -10.675171,-21.556082c-26.687928,-29.316272 -33.804709,-38.800948 -33.804709,-47.423381c0,-5.17346 -6.227183,-11.209163 -13.343964,-13.795893c-7.116781,-2.58673 -15.123159,-12.933649 -18.681549,-23.280569c-2.668793,-9.484676 -8.895976,-21.556082 -13.343964,-26.729542c-37.363099,-43.112165 -43.590282,-52.596841 -43.590282,-61.219274c0,-6.035703 -6.227183,-12.933649 -13.343964,-16.382623c-7.116781,-2.58673 -13.343964,-9.484676 -13.343964,-14.658136c0,-12.933649 37.363099,-50.872354 51.59666,-50.872354c5.337586,0 10.675171,-4.311216 10.675171,-8.622433c0,-5.17346 7.116781,-12.071406 16.012757,-14.658136c17.791952,-6.897946 71.167808,-43.112165 93.407747,-64.668247c8.895976,-8.622433 21.350342,-15.520379 28.467123,-15.520379c7.116781,0 13.343964,-3.448973 13.343964,-8.622433c0,-4.311216 6.227183,-8.622433 13.343964,-8.622433c8.006378,0 16.012757,-6.035703 18.681549,-12.933649c3.55839,-6.897946 10.675171,-12.933649 17.791952,-12.933649c7.116781,0 19.571147,-7.76019 27.577525,-17.244866c8.895976,-9.484676 20.460745,-17.244866 25.79833,-17.244866c6.227183,0 12.454366,-6.035703 16.012757,-12.933649c2.668793,-6.897946 12.454366,-12.933649 22.23994,-12.933649c8.895976,0 18.681549,-6.035703 22.23994,-12.933649c2.668793,-6.897946 10.675171,-12.933649 18.681549,-12.933649c7.116781,0 13.343964,-3.448973 13.343964,-7.76019c0,-4.311216 15.123159,-17.244866 33.804709,-27.591785c17.791952,-11.209163 34.694306,-23.280569 35.583904,-26.729542c1.779195,-3.448973 8.895976,-6.897946 16.012757,-6.897946c7.116781,0 15.123159,-6.035703 17.791952,-12.933649c3.55839,-6.897946 10.675171,-12.933649 16.902354,-12.933649c5.337586,0 22.23994,-10.34692 36.473501,-22.418326c14.233562,-12.071406 36.473501,-25.867299 50.707063,-31.040759c13.343964,-4.311216 24.019135,-12.071406 24.019135,-16.382623c0,-4.311216 5.337586,-7.76019 11.564769,-7.76019c6.227183,0 27.577525,-11.209163 47.148673,-25.867299c18.681549,-13.795893 40.031892,-25.867299 46.259075,-25.867299c5.337586,0 10.675171,-3.448973 10.675171,-8.622433c0,-4.311216 6.227183,-6.035703 13.343964,-3.448973c7.116781,3.448973 13.343964,1.724487 13.343964,-3.448973c0,-5.17346 12.454366,-11.209163 26.687928,-14.658136c15.123159,-3.448973 26.687928,-9.484676 26.687928,-12.933649c0,-4.311216 14.233562,-10.34692 31.135916,-13.795893c16.902354,-2.58673 34.694306,-10.34692 40.921489,-17.244866c5.337586,-6.897946 21.350342,-12.071406 35.583904,-12.071406c14.233562,0 25.79833,-3.448973 25.79833,-8.622433c0,-4.311216 8.895976,-8.622433 20.460745,-8.622433c10.675171,0 30.246318,-5.17346 43.590282,-12.071406c12.454366,-6.897946 40.031892,-14.658136 59.603039,-18.107109c20.460745,-3.448973 36.473501,-8.622433 36.473501,-12.933649c0,-7.76019 67.609417,-21.556082 92.51815,-18.969352c9.785574,0.862243 19.571147,-1.724487 23.129537,-6.897946c3.55839,-5.17346 20.460745,-9.484676 39.142294,-10.34692c17.791952,-0.862243 34.694306,-4.311216 36.473501,-7.76019c2.668793,-3.448973 20.460745,-4.311216 40.031892,-2.58673c19.571147,2.58673 43.590282,0 53.375856,-5.17346c21.350342,-11.209163 319.365537,-17.244866 325.59272,-6.897946c2.668793,4.311216 21.350342,6.897946 41.811087,6.897946c44.47988,-0.862243 166.35475,10.34692 246.418534,22.418326c43.590282,6.035703 88.959759,22.418326 88.959759,31.903002c0,3.448973 7.116781,6.035703 16.012757,5.17346c15.123159,-1.724487 39.142294,4.311216 64.940624,18.107109c8.006378,4.311216 29.356721,10.34692 47.148673,12.933649c17.791952,3.448973 32.025513,9.484676 32.025513,13.795893c0,4.311216 7.116781,7.76019 16.012757,7.76019c8.006378,0 25.79833,5.17346 39.142294,12.071406c13.343964,6.897946 35.583904,14.658136 50.707063,18.107109c15.123159,3.448973 27.577525,9.484676 27.577525,14.658136c0,5.17346 5.337586,6.897946 12.454366,4.311216c7.116781,-2.58673 20.460745,2.58673 31.135916,12.071406c10.675171,9.484676 23.129537,14.658136 27.577525,12.071406c5.337586,-2.58673 8.895976,-0.862243 8.895976,3.448973c0,5.17346 6.227183,9.484676 13.343964,9.484676c7.116781,0 13.343964,3.448973 13.343964,7.76019c0,4.311216 7.116781,9.484676 16.012757,12.071406c18.681549,6.035703 63.161429,31.903002 80.063784,47.423381c6.227183,5.17346 17.791952,10.34692 24.908733,10.34692c7.116781,0 12.454366,4.311216 12.454366,8.622433c0,5.17346 6.227183,8.622433 13.343964,8.622433c8.006378,0 16.012757,6.035703 18.681549,12.933649c2.668793,6.897946 12.454366,14.658136 22.23994,17.244866c16.012757,5.17346 32.025513,17.244866 85.401369,62.943761c12.454366,10.34692 25.79833,18.969352 29.356721,18.969352c9.785574,0 257.983302,238.841393 257.983302,248.326069c0,4.311216 13.343964,21.556082 29.356721,38.800948c41.811087,43.974408 59.603039,68.11722 59.603039,80.188626c0,6.035703 6.227183,12.071406 13.343964,15.520379c7.116781,2.58673 13.343964,10.34692 13.343964,18.107109c0,6.897946 3.55839,12.933649 8.006378,12.933649c4.447988,0 16.012757,15.520379 26.687928,35.351975c10.675171,18.969352 26.687928,43.112165 36.473501,52.596841c9.785574,10.34692 15.123159,21.556082 11.564769,26.729542c-2.668793,4.311216 -1.779195,10.34692 2.668793,13.795893c11.564769,7.76019 75.615796,131.923224 74.726198,145.719117c0,5.17346 4.447988,10.34692 8.895976,10.34692c5.337586,0 8.895976,6.035703 8.895976,13.795893c0,7.76019 5.337586,25.867299 12.454366,40.525435c21.350342,46.561138 25.79833,62.081517 24.019135,73.29068c-0.889598,5.17346 2.668793,10.34692 8.006378,10.34692c4.447988,0 8.895976,9.484676 8.895976,20.693839c0,12.071406 3.55839,23.280569 8.006378,25.867299c4.447988,2.58673 6.227183,12.933649 3.55839,22.418326c-2.668793,9.484676 0,17.244866 5.337586,17.244866c5.337586,0 9.785574,11.209163 9.785574,25.005056c0,14.658136 3.55839,27.591785 8.006378,30.178515c3.55839,2.58673 5.337586,14.658136 2.668793,26.729542c-1.779195,12.071406 0,21.556082 5.337586,21.556082c8.895976,0 20.460745,60.357031 19.571147,111.229385c0,15.520379 3.55839,33.627488 8.006378,38.800948c24.908733,28.454029 24.908733,438.881837 0,467.335866c-4.447988,5.17346 -8.006378,23.280569 -8.006378,38.800948c0.889598,40.525435 -8.895976,96.571249 -19.571147,108.642655c-4.447988,6.035703 -6.227183,18.107109 -2.668793,27.591785c2.668793,8.622433 0.889598,18.969352 -4.447988,22.418326c-4.447988,2.58673 -8.895976,16.382623 -8.895976,31.040759c0,13.795893 -4.447988,25.005056 -9.785574,25.005056c-5.337586,0 -8.006378,7.76019 -5.337586,17.244866c2.668793,9.484676 0.889598,19.831596 -3.55839,22.418326c-4.447988,2.58673 -8.006378,13.795893 -8.006378,25.867299c0,11.209163 -4.447988,20.693839 -9.785574,20.693839c-5.337586,0 -8.006378,6.035703 -5.337586,12.933649c3.55839,6.897946 1.779195,14.658136 -2.668793,17.244866c-5.337586,3.448973 -8.895976,12.933649 -8.895976,22.418326c0,8.622433 -3.55839,16.382623 -8.006378,16.382623c-4.447988,0 -10.675171,15.520379 -14.233562,34.489732c-3.55839,18.969352 -9.785574,34.489732 -14.233562,34.489732c-4.447988,0 -8.006378,7.76019 -8.006378,16.382623c0,9.484676 -6.227183,22.418326 -13.343964,29.316272c-6.227183,6.897946 -15.123159,22.418326 -18.681549,35.351975c-2.668793,12.071406 -8.895976,22.418326 -12.454366,22.418326c-4.447988,0 -9.785574,12.071406 -13.343964,25.867299c-3.55839,14.658136 -9.785574,25.867299 -14.233562,25.867299c-5.337586,0 -8.006378,5.17346 -6.227183,11.209163c2.668793,12.071406 -37.363099,75.015167 -48.03827,75.015167c-4.447988,0 -7.116781,7.76019 -7.116781,17.244866c0,9.484676 -5.337586,19.831596 -12.454366,22.418326c-7.116781,2.58673 -15.123159,11.209163 -17.791952,18.969352c-7.116781,18.107109 -24.019135,45.698895 -39.142294,62.081517c-47.148673,53.459084 -64.051027,74.152923 -64.051027,78.46414c0,2.58673 -24.019135,29.316272 -52.486258,57.770301c-29.356721,29.316272 -55.155051,60.357031 -58.713441,69.841707c-2.668793,8.622433 -22.23994,27.591785 -42.700685,40.525435c-20.460745,13.795893 -61.382234,47.423381 -89.849357,75.015167c-29.356721,26.729542 -58.713441,49.147868 -64.940624,49.147868c-6.227183,0 -11.564769,4.311216 -11.564769,8.622433c0,5.17346 -7.116781,12.071406 -15.123159,14.658136c-8.006378,3.448973 -23.129537,12.933649 -32.915111,21.556082c-41.811087,35.351975 -49.817465,41.387678 -55.155051,40.525435c-2.668793,-0.862243 -21.350342,8.622433 -40.921489,21.556082c-19.571147,12.071406 -39.142294,22.418326 -43.590282,22.418326c-4.447988,0 -8.006378,4.311216 -8.006378,8.622433c0,5.17346 -5.337586,8.622433 -12.454366,8.622433c-6.227183,0 -22.23994,7.76019 -34.694306,17.244866c-12.454366,9.484676 -26.687928,17.244866 -32.915111,17.244866c-5.337586,0 -16.012757,6.035703 -23.129537,12.933649c-8.006378,6.897946 -21.350342,12.933649 -31.135916,12.933649c-8.895976,0 -16.902354,3.448973 -16.902354,7.76019c0,4.311216 -14.233562,10.34692 -31.135916,12.933649c-16.902354,3.448973 -31.135916,9.484676 -31.135916,13.795893c0,4.311216 -14.233562,10.34692 -31.135916,13.795893c-16.902354,2.58673 -33.804709,8.622433 -36.473501,12.933649c-2.668793,4.311216 -11.564769,7.76019 -19.571147,7.76019c-8.006378,0 -26.687928,6.035703 -40.921489,12.933649c-13.343964,6.897946 -32.915111,12.933649 -41.811087,12.933649c-8.895976,0 -17.791952,3.448973 -21.350342,8.622433c-2.668793,4.311216 -10.675171,6.035703 -16.902354,3.448973c-7.116781,-2.58673 -15.123159,-0.862243 -18.681549,4.311216c-2.668793,5.17346 -16.902354,9.484676 -31.135916,9.484676c-14.233562,0 -28.467123,4.311216 -31.135916,8.622433c-3.55839,5.17346 -14.233562,6.897946 -23.129537,4.311216c-9.785574,-3.448973 -23.129537,-1.724487 -28.467123,3.448973c-13.343964,10.34692 -69.388612,19.831596 -112.089297,18.969352c-16.012757,-0.862243 -34.694306,2.58673 -40.031892,7.76019c-6.227183,4.311216 -56.934246,9.484676 -112.978895,12.071406c-55.155051,1.724487 -107.641309,5.17346 -114.75809,7.76019l-159.237969,-10.34692z" id="svg_1" stroke-width="99" fill="#60e560"/>
   <path stroke="null" d="m2266.285197,3902.29771c-25.79833,-1.724487 -47.148673,-6.035703 -47.148673,-11.209163c0,-4.311216 -16.902354,-7.76019 -37.363099,-7.76019c-57.823844,0.862243 -122.764468,-9.484676 -122.764468,-18.969352c0,-5.17346 -9.785574,-6.897946 -22.23994,-5.17346c-12.454366,2.58673 -24.908733,0.862243 -27.577525,-2.58673c-2.668793,-4.311216 -16.012757,-7.76019 -31.135916,-7.76019c-14.233562,0 -25.79833,-3.448973 -25.79833,-7.76019c0,-3.448973 -18.681549,-9.484676 -41.811087,-12.071406c-23.129537,-2.58673 -43.590282,-8.622433 -45.369477,-13.795893c-1.779195,-5.17346 -13.343964,-9.484676 -24.908733,-9.484676c-11.564769,0 -36.473501,-7.76019 -54.265453,-17.244866c-18.681549,-9.484676 -40.031892,-17.244866 -48.03827,-17.244866c-7.116781,0 -16.902354,-2.58673 -20.460745,-6.035703c-3.55839,-4.311216 -9.785574,-7.76019 -12.454366,-7.76019c-23.129537,-5.17346 -46.259075,-15.520379 -46.259075,-20.693839c0,-4.311216 -11.564769,-9.484676 -26.687928,-12.933649c-14.233562,-3.448973 -26.687928,-9.484676 -26.687928,-14.658136c0,-5.17346 -5.337586,-6.897946 -12.454366,-4.311216c-7.116781,2.58673 -20.460745,-2.58673 -30.246318,-11.209163c-9.785574,-9.484676 -28.467123,-18.969352 -40.031892,-21.556082c-12.454366,-3.448973 -24.908733,-11.209163 -27.577525,-18.107109c-2.668793,-6.897946 -10.675171,-12.071406 -18.681549,-12.071406c-7.116781,0 -13.343964,-3.448973 -13.343964,-7.76019c0,-4.311216 -9.785574,-10.34692 -22.23994,-12.933649c-12.454366,-3.448973 -22.23994,-9.484676 -22.23994,-13.795893c0,-5.17346 -6.227183,-8.622433 -13.343964,-8.622433c-8.006378,0 -16.012757,-6.035703 -18.681549,-12.933649c-3.55839,-6.897946 -10.675171,-12.933649 -17.791952,-12.933649c-7.116781,0 -19.571147,-7.76019 -27.577525,-17.244866c-8.895976,-9.484676 -18.681549,-17.244866 -23.129537,-17.244866c-4.447988,0 -19.571147,-11.209163 -34.694306,-25.867299c-14.233562,-13.795893 -29.356721,-25.867299 -32.915111,-25.867299c-10.675171,0 -258.8729,-238.841393 -258.8729,-249.188312c0,-4.311216 -11.564769,-19.831596 -26.687928,-33.627488c-15.123159,-14.658136 -26.687928,-30.178515 -26.687928,-35.351975c0,-4.311216 -5.337586,-12.071406 -10.675171,-15.520379c-14.233562,-8.622433 -51.59666,-59.494787 -51.59666,-70.70395c0,-4.311216 -6.227183,-9.484676 -13.343964,-12.933649c-7.116781,-2.58673 -13.343964,-10.34692 -13.343964,-18.107109c0,-7.76019 -9.785574,-24.142812 -22.23994,-37.076462c-12.454366,-12.933649 -22.23994,-27.591785 -22.23994,-33.627488c0,-6.035703 -3.55839,-11.209163 -8.895976,-11.209163c-4.447988,0 -6.227183,-6.035703 -3.55839,-12.933649c3.55839,-6.897946 1.779195,-12.933649 -3.55839,-12.933649c-5.337586,0 -11.564769,-11.209163 -15.123159,-25.867299c-3.55839,-13.795893 -8.895976,-25.867299 -13.343964,-25.867299c-3.55839,0 -9.785574,-10.34692 -12.454366,-22.418326c-3.55839,-12.071406 -14.233562,-30.178515 -24.019135,-40.525435c-9.785574,-10.34692 -15.123159,-23.280569 -13.343964,-29.316272c2.668793,-6.035703 0.889598,-12.933649 -2.668793,-15.520379c-4.447988,-1.724487 -10.675171,-18.107109 -13.343964,-34.489732c-3.55839,-16.382623 -9.785574,-30.178515 -13.343964,-30.178515c-8.895976,0 -22.23994,-42.249921 -19.571147,-59.494787c0.889598,-6.897946 -2.668793,-14.658136 -8.006378,-18.107109c-5.337586,-3.448973 -12.454366,-23.280569 -15.123159,-43.974408c-2.668793,-20.693839 -8.895976,-40.525435 -13.343964,-43.112165c-4.447988,-2.58673 -8.895976,-16.382623 -10.675171,-30.178515c-1.779195,-13.795893 -4.447988,-26.729542 -5.337586,-29.316272c-0.889598,-2.58673 -0.889598,-12.933649 0,-23.280569c0.889598,-11.209163 -2.668793,-19.831596 -7.116781,-19.831596c-8.895976,0 -19.571147,-66.392734 -19.571147,-119.851818c0,-15.520379 -4.447988,-34.489732 -9.785574,-40.525435c-13.343964,-16.382623 -13.343964,-417.325755 0,-425.948188c5.337586,-2.58673 9.785574,-18.969352 8.895976,-35.351975c-0.889598,-39.663192 10.675171,-113.816115 19.571147,-124.163034c3.55839,-5.17346 7.116781,-17.244866 7.116781,-25.867299c0.889598,-33.627488 11.564769,-81.913113 18.681549,-81.913113c3.55839,0 9.785574,-17.244866 12.454366,-38.800948c3.55839,-20.693839 9.785574,-40.525435 14.233562,-43.112165c3.55839,-2.58673 9.785574,-19.831596 13.343964,-38.800948c3.55839,-18.969352 9.785574,-34.489732 14.233562,-34.489732c4.447988,0 8.006378,-6.897946 8.006378,-14.658136c0.889598,-8.622433 8.006378,-31.040759 17.791952,-50.010111c9.785574,-18.969352 16.902354,-41.387678 17.791952,-49.147868c0,-8.622433 4.447988,-15.520379 9.785574,-15.520379c5.337586,0 8.006378,-6.035703 4.447988,-12.933649c-2.668793,-6.897946 -0.889598,-12.933649 3.55839,-12.933649c5.337586,0 8.895976,-6.035703 8.895976,-12.933649c0,-6.897946 4.447988,-12.933649 9.785574,-12.933649c5.337586,0 8.006378,-6.035703 4.447988,-12.933649c-2.668793,-6.897946 -1.779195,-12.933649 2.668793,-12.933649c4.447988,0 9.785574,-8.622433 13.343964,-18.969352c2.668793,-11.209163 15.123159,-31.040759 27.577525,-44.836651c12.454366,-13.795893 22.23994,-30.178515 22.23994,-37.076462c0,-6.035703 3.55839,-11.209163 8.006378,-11.209163c4.447988,0 11.564769,-10.34692 16.902354,-23.280569c4.447988,-13.795893 16.902354,-32.765245 27.577525,-43.112165c10.675171,-10.34692 18.681549,-23.280569 18.681549,-27.591785c0,-4.311216 12.454366,-19.831596 26.687928,-33.627488c15.123159,-14.658136 26.687928,-30.178515 26.687928,-35.351975c0,-4.311216 5.337586,-12.071406 12.454366,-15.520379c6.227183,-3.448973 22.23994,-20.693839 33.804709,-37.938705c24.019135,-34.489732 244.639339,-249.188312 256.204107,-249.188312c7.116781,0 35.583904,-21.556082 71.167808,-53.459084c8.895976,-7.76019 24.019135,-16.382623 33.804709,-18.969352c9.785574,-3.448973 20.460745,-11.209163 23.129537,-18.107109c2.668793,-6.897946 10.675171,-12.933649 18.681549,-12.933649c7.116781,0 13.343964,-3.448973 13.343964,-8.622433c0,-4.311216 5.337586,-8.622433 12.454366,-8.622433c7.116781,0 18.681549,-5.17346 24.908733,-10.34692c16.012757,-13.795893 40.921489,-30.178515 69.388612,-43.974408c12.454366,-5.17346 30.246318,-17.244866 39.142294,-25.005056c8.895976,-8.622433 20.460745,-12.933649 24.019135,-10.34692c4.447988,2.58673 16.012757,-3.448973 26.687928,-12.933649c10.675171,-9.484676 24.019135,-14.658136 31.135916,-12.071406c7.116781,2.58673 12.454366,0.862243 12.454366,-4.311216c0,-5.17346 11.564769,-11.209163 26.687928,-14.658136c14.233562,-3.448973 28.467123,-9.484676 31.135916,-13.795893c3.55839,-4.311216 12.454366,-7.76019 20.460745,-7.76019c8.006378,-0.862243 31.135916,-7.76019 50.707063,-17.244866c19.571147,-9.484676 44.47988,-16.382623 56.044648,-17.244866c10.675171,0 19.571147,-3.448973 19.571147,-7.76019c0,-4.311216 20.460745,-10.34692 44.47988,-13.795893c24.908733,-3.448973 44.47988,-8.622433 44.47988,-12.933649c0,-6.897946 49.817465,-17.244866 84.511772,-18.107109c8.895976,0 21.350342,-3.448973 26.687928,-6.897946c10.675171,-8.622433 87.180564,-19.831596 128.102054,-18.969352c16.012757,0.862243 35.583904,-3.448973 41.811087,-8.622433c14.233562,-11.209163 289.119218,-15.520379 368.293404,-5.17346c32.025513,3.448973 73.8366,8.622433 93.407747,11.209163c96.07654,9.484676 114.75809,12.933649 124.543663,20.693839c5.337586,4.311216 17.791952,7.76019 26.687928,7.76019c30.246318,0.862243 79.174186,11.209163 90.738955,19.831596c6.227183,4.311216 15.123159,6.035703 19.571147,3.448973c4.447988,-3.448973 10.675171,-1.724487 14.233562,3.448973c2.668793,4.311216 15.123159,8.622433 27.577525,8.622433c11.564769,0 21.350342,4.311216 21.350342,9.484676c0,5.17346 8.006378,7.76019 17.791952,5.17346c9.785574,-2.58673 20.460745,-0.862243 23.129537,3.448973c2.668793,4.311216 12.454366,7.76019 22.23994,7.76019c8.895976,0 16.902354,4.311216 16.902354,9.484676c0,5.17346 5.337586,7.76019 11.564769,5.17346c5.337586,-1.724487 28.467123,5.17346 50.707063,16.382623c22.23994,11.209163 47.148673,20.693839 55.155051,20.693839c8.895976,0 16.012757,4.311216 16.012757,9.484676c0,5.17346 6.227183,7.76019 13.343964,4.311216c7.116781,-2.58673 13.343964,-0.862243 13.343964,3.448973c0,5.17346 6.227183,8.622433 13.343964,8.622433c7.116781,0 13.343964,4.311216 13.343964,9.484676c0,5.17346 6.227183,7.76019 13.343964,4.311216c7.116781,-2.58673 13.343964,-0.862243 13.343964,3.448973c0,5.17346 6.227183,8.622433 13.343964,8.622433c7.116781,0 13.343964,3.448973 13.343964,6.897946c0,3.448973 10.675171,11.209163 24.908733,16.382623c26.687928,12.071406 52.486258,27.591785 71.167808,43.112165c6.227183,6.035703 17.791952,11.209163 24.908733,11.209163c7.116781,0 12.454366,4.311216 12.454366,8.622433c0,5.17346 5.337586,8.622433 11.564769,8.622433c6.227183,0 17.791952,7.76019 26.687928,17.244866c8.006378,9.484676 20.460745,17.244866 27.577525,17.244866c7.116781,0 14.233562,6.035703 17.791952,12.933649c2.668793,6.897946 8.895976,12.933649 14.233562,12.933649c6.227183,0 22.23994,11.209163 37.363099,25.867299c14.233562,14.658136 30.246318,25.867299 35.583904,25.867299c5.337586,0 30.246318,18.969352 55.155051,43.112165c24.908733,23.280569 59.603039,55.183571 76.505393,71.566193c37.363099,35.351975 116.537285,120.714061 144.11481,156.92828c19.571147,25.867299 25.79833,33.627488 51.59666,62.081517c13.343964,15.520379 29.356721,39.663192 41.811087,62.943761c3.55839,6.897946 16.902354,24.142812 31.135916,37.076462c13.343964,13.795893 24.908733,30.178515 24.908733,37.076462c0,6.897946 4.447988,12.071406 8.895976,12.071406c5.337586,0 8.895976,6.035703 8.895976,12.933649c0,7.76019 6.227183,15.520379 13.343964,18.107109c7.116781,3.448973 13.343964,10.34692 13.343964,17.244866c0,6.897946 8.006378,18.969352 17.791952,26.729542c9.785574,8.622433 17.791952,19.831596 17.791952,25.867299c0,6.035703 4.447988,11.209163 8.895976,11.209163c5.337586,0 13.343964,8.622433 17.791952,19.831596c13.343964,28.454029 28.467123,50.010111 56.044648,77.601897c13.343964,13.795893 24.019135,30.178515 24.019135,37.076462c0,6.897946 4.447988,12.071406 8.895976,12.071406c5.337586,0 8.895976,6.035703 8.895976,12.933649c0,7.76019 6.227183,15.520379 13.343964,18.107109c7.116781,3.448973 13.343964,10.34692 13.343964,17.244866c0,6.897946 8.006378,18.969352 17.791952,26.729542c9.785574,8.622433 17.791952,19.831596 17.791952,25.867299c0,6.035703 4.447988,11.209163 8.895976,11.209163c5.337586,0 13.343964,8.622433 17.791952,19.831596c12.454366,27.591785 27.577525,49.147868 55.155051,79.326383c14.233562,13.795893 24.908733,31.040759 24.908733,37.076462c0,5.17346 4.447988,10.34692 8.895976,10.34692c5.337586,0 8.895976,6.035703 8.895976,12.933649c0,7.76019 6.227183,15.520379 13.343964,18.107109c7.116781,3.448973 13.343964,10.34692 13.343964,16.382623c0,9.484676 11.564769,25.005056 46.259075,64.668247c11.564769,12.933649 28.467123,37.938705 40.031892,60.357031c3.55839,6.897946 17.791952,25.005056 31.135916,38.800948c13.343964,14.658136 24.908733,31.040759 24.908733,37.076462c0,5.17346 4.447988,10.34692 8.895976,10.34692c5.337586,0 8.895976,6.035703 8.895976,12.933649c0,7.76019 6.227183,15.520379 13.343964,18.107109c7.116781,3.448973 13.343964,10.34692 13.343964,16.382623c0,5.17346 7.116781,18.107109 16.012757,28.454029c8.006378,9.484676 21.350342,25.867299 28.467123,36.214218c7.116781,10.34692 20.460745,28.454029 29.356721,38.800948c8.006378,11.209163 15.123159,22.418326 15.123159,25.867299c0,2.58673 5.337586,10.34692 11.564769,16.382623c5.337586,6.897946 16.902354,20.693839 24.019135,31.040759c7.116781,10.34692 17.791952,24.142812 23.129537,29.316272c4.447988,5.17346 11.564769,16.382623 15.123159,25.005056c2.668793,7.76019 9.785574,14.658136 15.123159,14.658136c4.447988,0 8.895976,5.17346 8.895976,11.209163c0,6.897946 7.116781,19.831596 16.012757,30.178515c35.583904,42.249921 46.259075,57.770301 46.259075,68.11722c0,6.035703 4.447988,11.209163 8.895976,11.209163c5.337586,0 11.564769,6.035703 15.123159,13.795893c2.668793,7.76019 16.902354,25.867299 30.246318,40.525435c14.233562,14.658136 25.79833,33.627488 25.79833,42.249921c0,8.622433 6.227183,15.520379 13.343964,15.520379c8.006378,0 18.681549,9.484676 24.019135,21.556082c5.337586,12.071406 13.343964,21.556082 16.902354,21.556082c3.55839,0 9.785574,7.76019 12.454366,18.107109c3.55839,10.34692 12.454366,25.005056 20.460745,33.627488c29.356721,31.040759 37.363099,42.249921 37.363099,51.734598c0,4.311216 3.55839,8.622433 8.895976,8.622433c4.447988,0 6.227183,5.17346 3.55839,12.071406c-2.668793,6.035703 1.779195,13.795893 8.895976,16.382623c8.006378,3.448973 14.233562,11.209163 14.233562,18.107109c0,6.035703 6.227183,13.795893 13.343964,17.244866c7.116781,2.58673 13.343964,9.484676 13.343964,16.382623c0,6.035703 12.454366,25.005056 26.687928,40.525435c15.123159,15.520379 26.687928,34.489732 26.687928,40.525435c0,6.035703 4.447988,11.209163 8.895976,11.209163c5.337586,0 8.895976,6.035703 8.895976,12.933649c0,7.76019 6.227183,15.520379 13.343964,18.107109c7.116781,3.448973 13.343964,10.34692 13.343964,17.244866c0,6.897946 8.006378,18.969352 17.791952,26.729542c9.785574,8.622433 17.791952,19.831596 17.791952,25.005056c0,6.035703 6.227183,12.071406 13.343964,15.520379c7.116781,2.58673 13.343964,10.34692 13.343964,17.244866c0,11.209163 10.675171,25.867299 60.492636,80.188626c10.675171,12.071406 19.571147,27.591785 19.571147,33.627488c0,6.897946 4.447988,12.071406 8.895976,12.071406c5.337586,0 8.895976,6.035703 8.895976,12.933649c0,7.76019 6.227183,15.520379 13.343964,18.107109c7.116781,3.448973 13.343964,10.34692 13.343964,17.244866c0,6.897946 8.006378,18.969352 17.791952,26.729542c9.785574,8.622433 17.791952,19.831596 17.791952,25.867299c0,6.035703 4.447988,11.209163 8.895976,11.209163c5.337586,0 13.343964,8.622433 17.791952,19.831596c12.454366,27.591785 27.577525,49.147868 55.155051,79.326383c14.233562,13.795893 24.908733,31.040759 24.908733,37.076462c0,5.17346 5.337586,10.34692 11.564769,11.209163c5.337586,0 0,4.311216 -13.343964,9.484676c-14.233562,4.311216 -24.908733,12.071406 -24.908733,16.382623c0,4.311216 -3.55839,7.76019 -8.006378,7.76019c-5.337586,0 -25.79833,11.209163 -47.148673,25.005056c-21.350342,12.933649 -53.375856,26.729542 -71.167808,30.178515c-18.681549,3.448973 -33.804709,9.484676 -33.804709,13.795893c0,5.17346 -8.006378,8.622433 -16.902354,8.622433c-9.785574,0 -19.571147,3.448973 -23.129537,8.622433c-2.668793,4.311216 -10.675171,6.035703 -16.902354,3.448973c-7.116781,-2.58673 -15.123159,-0.862243 -18.681549,4.311216c-2.668793,5.17346 -16.902354,9.484676 -31.135916,9.484676c-14.233562,0 -28.467123,4.311216 -31.135916,8.622433c-2.668793,5.17346 -16.012757,6.035703 -28.467123,3.448973c-13.343964,-3.448973 -24.908733,-1.724487 -29.356721,5.17346c-8.895976,13.795893 -288.229621,15.520379 -306.021573,0.862243c-6.227183,-5.17346 -21.350342,-9.484676 -32.915111,-9.484676c-36.473501,0 -88.070162,-10.34692 -88.070162,-17.244866c0,-4.311216 -17.791952,-10.34692 -40.031892,-13.795893c-22.23994,-2.58673 -40.031892,-8.622433 -40.031892,-12.933649c0,-3.448973 -14.233562,-9.484676 -31.135916,-12.933649c-16.902354,-2.58673 -31.135916,-8.622433 -31.135916,-12.933649c0,-4.311216 -7.116781,-7.76019 -16.012757,-7.76019c-9.785574,0 -25.79833,-7.76019 -37.363099,-17.244866c-11.564769,-9.484676 -25.79833,-17.244866 -32.915111,-17.244866c-6.227183,0 -11.564769,-3.448973 -11.564769,-8.622433c0,-4.311216 -6.227183,-8.622433 -13.343964,-8.622433c-8.006378,0 -16.012757,-6.035703 -18.681549,-12.933649c-2.668793,-6.897946 -12.454366,-14.658136 -22.23994,-17.244866c-8.895976,-3.448973 -33.804709,-20.693839 -54.265453,-39.663192c-20.460745,-18.107109 -44.47988,-36.214218 -53.375856,-38.800948c-8.895976,-2.58673 -22.23994,-15.520379 -29.356721,-29.316272c-7.116781,-13.795893 -29.356721,-40.525435 -48.927868,-59.494787c-19.571147,-18.969352 -35.583904,-40.525435 -35.583904,-47.423381c0,-7.76019 -3.55839,-13.795893 -8.895976,-13.795893c-4.447988,0 -8.895976,-6.035703 -8.895976,-12.933649c0,-7.76019 -6.227183,-15.520379 -13.343964,-18.107109c-7.116781,-3.448973 -13.343964,-10.34692 -13.343964,-16.382623c0,-6.035703 -12.454366,-24.142812 -26.687928,-39.663192c-15.123159,-16.382623 -29.356721,-37.938705 -32.025513,-48.285625c-2.668793,-10.34692 -10.675171,-20.693839 -17.791952,-23.280569c-7.116781,-2.58673 -12.454366,-10.34692 -12.454366,-17.244866c0,-6.035703 -6.227183,-13.795893 -13.343964,-17.244866c-7.116781,-2.58673 -13.343964,-9.484676 -13.343964,-15.520379c0,-6.035703 -8.895976,-20.693839 -20.460745,-32.765245c-11.564769,-12.071406 -23.129537,-28.454029 -26.687928,-36.214218c-2.668793,-8.622433 -9.785574,-15.520379 -14.233562,-15.520379c-4.447988,0 -11.564769,-8.622433 -15.123159,-18.969352c-2.668793,-10.34692 -8.895976,-22.418326 -13.343964,-27.591785c-37.363099,-43.112165 -43.590282,-52.596841 -43.590282,-61.219274c0,-6.035703 -6.227183,-12.933649 -13.343964,-16.382623c-7.116781,-2.58673 -13.343964,-10.34692 -13.343964,-18.107109c0,-6.897946 -4.447988,-12.933649 -8.895976,-12.933649c-5.337586,0 -12.454366,-6.897946 -15.123159,-14.658136c-7.116781,-18.107109 -44.47988,-69.841707 -66.71982,-91.397789c-8.895976,-8.622433 -16.012757,-20.693839 -16.012757,-27.591785c0,-6.897946 -3.55839,-12.933649 -8.895976,-12.933649c-4.447988,0 -8.895976,-6.035703 -8.895976,-12.933649c0,-7.76019 -6.227183,-15.520379 -13.343964,-18.107109c-7.116781,-3.448973 -13.343964,-10.34692 -13.343964,-17.244866c0,-6.897946 -8.006378,-18.969352 -17.791952,-26.729542c-9.785574,-8.622433 -17.791952,-19.831596 -17.791952,-25.867299c0,-6.035703 -4.447988,-11.209163 -8.895976,-11.209163c-5.337586,0 -13.343964,-9.484676 -17.791952,-21.556082c-4.447988,-12.071406 -14.233562,-24.142812 -22.23994,-26.729542c-7.116781,-2.58673 -10.675171,-8.622433 -8.006378,-12.933649c2.668793,-4.311216 -7.116781,-19.831596 -22.23994,-34.489732c-15.123159,-14.658136 -27.577525,-31.903002 -27.577525,-38.800948c0,-6.897946 -3.55839,-12.071406 -8.895976,-12.071406c-4.447988,0 -8.895976,-6.035703 -8.895976,-12.933649c0,-7.76019 -6.227183,-15.520379 -13.343964,-18.107109c-7.116781,-3.448973 -13.343964,-10.34692 -13.343964,-17.244866c0,-6.897946 -8.006378,-18.969352 -17.791952,-26.729542c-9.785574,-8.622433 -17.791952,-19.831596 -17.791952,-25.867299c0,-6.035703 -4.447988,-11.209163 -8.895976,-11.209163c-5.337586,0 -13.343964,-8.622433 -17.791952,-18.969352c-12.454366,-28.454029 -27.577525,-50.010111 -55.155051,-80.188626c-14.233562,-13.795893 -24.908733,-31.040759 -24.908733,-36.214218c0,-6.035703 -3.55839,-11.209163 -8.895976,-11.209163c-4.447988,0 -8.895976,-6.035703 -8.895976,-12.933649c0,-7.76019 -6.227183,-15.520379 -13.343964,-18.107109c-7.116781,-3.448973 -13.343964,-10.34692 -13.343964,-16.382623c0,-9.484676 -11.564769,-25.005056 -46.259075,-64.668247c-11.564769,-12.933649 -28.467123,-37.938705 -40.031892,-60.357031c-8.006378,-16.382623 -20.460745,-31.903002 -40.031892,-50.010111c-8.895976,-7.76019 -16.012757,-18.969352 -16.012757,-25.005056c0,-6.035703 -3.55839,-11.209163 -8.895976,-11.209163c-4.447988,0 -8.895976,-6.035703 -8.895976,-12.933649c0,-7.76019 -6.227183,-15.520379 -13.343964,-18.107109c-7.116781,-3.448973 -13.343964,-10.34692 -13.343964,-16.382623c0,-5.17346 -7.116781,-18.107109 -15.123159,-28.454029c-32.915111,-37.938705 -47.148673,-56.908057 -47.148673,-63.806004c0,-3.448973 -13.343964,-19.831596 -28.467123,-36.214218c-16.012757,-16.382623 -43.590282,-44.836651 -61.382234,-62.943761c-39.142294,-41.387678 -102.303723,-91.397789 -124.543663,-99.157979c-9.785574,-3.448973 -16.902354,-9.484676 -16.902354,-12.933649c0,-6.897946 -18.681549,-18.107109 -64.051027,-38.800948c-14.233562,-6.035703 -24.908733,-13.795893 -24.908733,-16.382623c0,-3.448973 -11.564769,-8.622433 -26.687928,-12.071406c-14.233562,-3.448973 -26.687928,-8.622433 -26.687928,-12.933649c0,-3.448973 -16.012757,-9.484676 -35.583904,-12.933649c-19.571147,-3.448973 -35.583904,-9.484676 -35.583904,-14.658136c0,-5.17346 -8.006378,-6.897946 -17.791952,-4.311216c-9.785574,2.58673 -20.460745,0.862243 -23.129537,-3.448973c-2.668793,-4.311216 -14.233562,-7.76019 -25.79833,-7.76019c-11.564769,0 -23.129537,-3.448973 -26.687928,-7.76019c-6.227183,-11.209163 -24.019135,-12.071406 -213.503423,-11.209163c-201.938654,0.862243 -207.27624,0.862243 -213.503423,10.34692c-3.55839,5.17346 -15.123159,8.622433 -26.687928,8.622433c-11.564769,0 -24.019135,4.311216 -26.687928,8.622433c-3.55839,5.17346 -9.785574,6.897946 -14.233562,3.448973c-4.447988,-2.58673 -13.343964,-0.862243 -19.571147,3.448973c-6.227183,5.17346 -33.804709,16.382623 -62.271832,25.867299c-28.467123,10.34692 -67.609417,29.316272 -88.070162,43.974408c-20.460745,14.658136 -42.700685,26.729542 -48.927868,26.729542c-6.227183,0 -11.564769,4.311216 -11.564769,8.622433c0,5.17346 -6.227183,8.622433 -13.343964,8.622433c-8.006378,0 -16.012757,6.035703 -18.681549,12.933649c-3.55839,6.897946 -10.675171,12.933649 -16.902354,12.933649c-15.123159,0 -173.471531,153.479306 -173.471531,168.137442c0,6.035703 -6.227183,12.933649 -13.343964,16.382623c-7.116781,2.58673 -13.343964,10.34692 -13.343964,18.107109c0,6.897946 -3.55839,12.933649 -8.895976,12.933649c-4.447988,0 -8.895976,5.17346 -8.895976,11.209163c0,5.17346 -14.233562,29.316272 -31.135916,52.596841c-16.902354,23.280569 -31.135916,50.010111 -31.135916,58.632544c0,8.622433 -4.447988,15.520379 -9.785574,15.520379c-5.337586,0 -8.006378,5.17346 -5.337586,11.209163c1.779195,5.17346 -4.447988,23.280569 -13.343964,38.800948c-8.895976,15.520379 -14.233562,31.903002 -11.564769,36.214218c2.668793,4.311216 0.889598,9.484676 -4.447988,12.933649c-4.447988,2.58673 -8.895976,14.658136 -8.895976,25.867299c0,11.209163 -3.55839,22.418326 -8.006378,25.867299c-11.564769,6.035703 -12.454366,23.280569 -12.454366,206.938391c0,192.280255 1.779195,211.249607 10.675171,211.249607c4.447988,0 9.785574,19.831596 13.343964,43.112165c3.55839,24.142812 9.785574,43.112165 14.233562,43.112165c5.337586,0 8.895976,6.897946 8.895976,15.520379c0.889598,7.76019 8.006378,30.178515 17.791952,49.147868c9.785574,18.969352 16.902354,39.663192 17.791952,45.698895c0,5.17346 4.447988,10.34692 8.895976,10.34692c5.337586,0 8.895976,5.17346 8.895976,11.209163c0,6.897946 8.006378,20.693839 17.791952,31.903002c9.785574,11.209163 17.791952,23.280569 17.791952,27.591785c0,4.311216 11.564769,19.831596 26.687928,35.351975c14.233562,15.520379 26.687928,31.903002 26.687928,36.214218c0.889598,5.17346 12.454366,18.107109 26.687928,30.178515c15.123159,11.209163 26.687928,25.867299 26.687928,32.765245c0,6.035703 4.447988,8.622433 8.895976,6.035703c5.337586,-2.58673 8.895976,0.862243 8.895976,7.76019c0,7.76019 4.447988,13.795893 9.785574,13.795893c6.227183,0 24.019135,13.795893 40.921489,30.178515c16.902354,16.382623 33.804709,30.178515 39.142294,30.178515c4.447988,0 17.791952,8.622433 28.467123,19.831596c10.675171,10.34692 31.135916,25.005056 45.369477,31.903002c49.817465,24.142812 58.713441,30.178515 58.713441,36.214218c0,4.311216 5.337586,6.897946 11.564769,6.897946c5.337586,0 21.350342,5.17346 34.694306,12.071406c13.343964,6.897946 35.583904,14.658136 50.707063,18.107109c15.123159,3.448973 27.577525,9.484676 27.577525,12.933649c0,4.311216 20.460745,10.34692 44.47988,13.795893c24.908733,3.448973 44.47988,8.622433 44.47988,12.933649c0,3.448973 10.675171,6.897946 24.908733,6.897946c13.343964,0.862243 62.271832,4.311216 108.530907,8.622433c79.174186,7.76019 132.550042,6.897946 217.951411,-4.311216c19.571147,-2.58673 46.259075,-4.311216 59.603039,-4.311216c13.343964,0 26.687928,-3.448973 29.356721,-7.76019c3.55839,-5.17346 15.123159,-8.622433 26.687928,-8.622433c11.564769,0 23.129537,-3.448973 26.687928,-8.622433c2.668793,-4.311216 10.675171,-6.035703 17.791952,-2.58673c7.116781,2.58673 13.343964,0.862243 13.343964,-4.311216c0,-4.311216 16.012757,-10.34692 35.583904,-13.795893c19.571147,-2.58673 35.583904,-9.484676 35.583904,-13.795893c0,-4.311216 10.675171,-11.209163 24.019135,-13.795893c13.343964,-3.448973 30.246318,-11.209163 36.473501,-18.107109c6.227183,-6.035703 19.571147,-11.209163 29.356721,-11.209163c8.895976,0 16.902354,-3.448973 16.902354,-8.622433c0,-4.311216 6.227183,-8.622433 13.343964,-8.622433c8.006378,0 16.012757,-6.035703 18.681549,-12.933649c3.55839,-6.897946 10.675171,-12.933649 17.791952,-12.933649c7.116781,0 19.571147,-7.76019 27.577525,-17.244866c8.895976,-9.484676 20.460745,-17.244866 25.79833,-17.244866c6.227183,0 12.454366,-6.035703 16.012757,-12.933649c2.668793,-6.897946 8.895976,-12.933649 14.233562,-12.933649c10.675171,0 65.830222,-37.938705 91.628552,-62.081517c8.895976,-8.622433 21.350342,-15.520379 28.467123,-15.520379c7.116781,0 13.343964,-3.448973 13.343964,-8.622433c0,-4.311216 6.227183,-8.622433 13.343964,-8.622433c8.006378,0 16.012757,-6.035703 18.681549,-12.933649c3.55839,-6.897946 10.675171,-12.933649 17.791952,-12.933649c7.116781,0 19.571147,-7.76019 27.577525,-17.244866c8.895976,-9.484676 20.460745,-17.244866 25.79833,-17.244866c6.227183,0 12.454366,-6.035703 16.012757,-12.933649c2.668793,-6.897946 9.785574,-12.933649 16.902354,-12.933649c6.227183,0 21.350342,-9.484676 32.915111,-21.556082c11.564769,-12.071406 24.908733,-21.556082 31.135916,-21.556082c5.337586,0 16.012757,-7.76019 24.908733,-17.244866c8.006378,-9.484676 21.350342,-17.244866 28.467123,-17.244866c7.116781,0 13.343964,-3.448973 13.343964,-8.622433c0,-4.311216 5.337586,-8.622433 11.564769,-8.622433c5.337586,0 20.460745,-10.34692 32.025513,-21.556082l20.460745,-21.556082l16.902354,20.693839c8.895976,11.209163 16.902354,25.005056 16.902354,30.178515c0,5.17346 4.447988,9.484676 8.895976,9.484676c5.337586,0 8.895976,6.035703 8.895976,12.933649c0,7.76019 6.227183,15.520379 13.343964,18.107109c7.116781,3.448973 13.343964,10.34692 13.343964,16.382623c0,9.484676 11.564769,25.005056 46.259075,64.668247c11.564769,12.933649 28.467123,37.938705 40.031892,60.357031c3.55839,6.897946 17.791952,25.005056 31.135916,38.800948c13.343964,14.658136 24.908733,31.040759 24.908733,37.076462c0,5.17346 4.447988,10.34692 8.895976,10.34692c5.337586,0 8.895976,6.035703 8.895976,12.933649c0,7.76019 6.227183,15.520379 13.343964,18.107109c7.116781,3.448973 13.343964,10.34692 13.343964,16.382623c0,9.484676 11.564769,25.005056 46.259075,64.668247c11.564769,12.933649 28.467123,37.938705 40.031892,60.357031c3.55839,6.897946 17.791952,25.005056 31.135916,38.800948c13.343964,14.658136 24.908733,31.040759 24.908733,37.076462c0,5.17346 4.447988,10.34692 8.895976,10.34692c5.337586,0 8.895976,6.035703 8.895976,12.933649c0,7.76019 6.227183,15.520379 13.343964,18.107109c7.116781,3.448973 13.343964,10.34692 13.343964,16.382623c0,9.484676 11.564769,25.005056 46.259075,64.668247c11.564769,12.071406 27.577525,37.076462 39.142294,59.494787c8.006378,15.520379 -6.227183,37.076462 -30.246318,48.285625c-10.675171,4.311216 -19.571147,11.209163 -19.571147,14.658136c0,4.311216 -6.227183,6.897946 -13.343964,6.897946c-8.006378,0 -16.012757,6.035703 -18.681549,12.933649c-3.55839,6.897946 -10.675171,12.933649 -16.902354,12.933649c-5.337586,0 -18.681549,6.897946 -29.356721,15.520379c-9.785574,7.76019 -26.687928,20.693839 -37.363099,27.591785c-10.675171,6.897946 -29.356721,19.831596 -40.031892,28.454029c-11.564769,7.76019 -24.908733,14.658136 -29.356721,14.658136c-4.447988,0 -10.675171,6.035703 -14.233562,12.933649c-2.668793,6.897946 -9.785574,12.933649 -16.012757,12.933649c-6.227183,0 -22.23994,9.484676 -35.583904,21.556082c-13.343964,12.071406 -27.577525,21.556082 -31.135916,21.556082c-4.447988,0 -14.233562,7.76019 -23.129537,17.244866c-8.006378,9.484676 -21.350342,17.244866 -28.467123,17.244866c-7.116781,0 -13.343964,4.311216 -13.343964,8.622433c0,5.17346 -5.337586,8.622433 -11.564769,8.622433c-6.227183,0 -17.791952,7.76019 -26.687928,17.244866c-8.006378,9.484676 -20.460745,17.244866 -27.577525,17.244866c-7.116781,0 -14.233562,6.035703 -17.791952,12.933649c-2.668793,6.897946 -10.675171,12.933649 -18.681549,12.933649c-7.116781,0 -13.343964,3.448973 -13.343964,7.76019c0,8.622433 -33.804709,29.316272 -64.051027,40.525435c-8.895976,2.58673 -16.012757,8.622433 -16.012757,12.933649c0,4.311216 -8.895976,12.071406 -19.571147,16.382623c-24.908733,10.34692 -50.707063,26.729542 -67.609417,41.387678c-6.227183,5.17346 -19.571147,10.34692 -28.467123,10.34692c-8.895976,0 -17.791952,2.58673 -19.571147,6.897946c-2.668793,6.035703 -80.063784,44.836651 -90.738955,44.836651c-3.55839,0 -14.233562,7.76019 -24.908733,16.382623c-9.785574,9.484676 -23.129537,14.658136 -30.246318,12.071406c-7.116781,-2.58673 -12.454366,-0.862243 -12.454366,4.311216c0,5.17346 -16.012757,11.209163 -35.583904,14.658136c-19.571147,3.448973 -35.583904,8.622433 -35.583904,12.933649c0,6.035703 -31.135916,17.244866 -57.823844,21.556082c-4.447988,0 -20.460745,6.035703 -35.583904,12.071406c-14.233562,6.897946 -35.583904,11.209163 -46.259075,10.34692c-11.564769,0 -20.460745,2.58673 -20.460745,6.897946c0,6.897946 -48.03827,18.107109 -84.511772,18.969352c-8.895976,0 -21.350342,3.448973 -26.687928,6.897946c-10.675171,8.622433 -79.174186,19.831596 -114.75809,18.969352c-14.233562,0 -33.804709,3.448973 -43.590282,8.622433c-16.902354,9.484676 -304.242377,15.520379 -412.773284,9.484676z" id="svg_2" fill="#234556"/>
  </g>
 </g>
</svg>